<svg xmlns="http://www.w3.org/2000/svg" viewBox="0 0 413.11 82.47"><defs><style>.cls-1{fill:#fff;}</style></defs><title>Asset 2</title><g id="Layer_2" data-name="Layer 2"><g id="Layer_1-2" data-name="Layer 1"><path class="cls-1" d="M381.4,82.35c-16.8,0-25.32-11.76-21.84-31.67,3.24-18.36,15.24-28.2,30.72-28.2,16.8,0,25.55,10.56,22.07,30.59C409.11,71.55,397.35,82.35,381.4,82.35ZM381,79.11c10.44,0,18.23-10,21.36-27.24S401,25.72,390.52,25.72c-10.2,0-17.88,8.88-20.88,26.15S370.84,79.11,381,79.11Z"/><path class="cls-1" d="M343.12,26.2a20.67,20.67,0,0,1,13.8,4.8l2.16-2c-3.48-3.84-8.16-6.48-16-6.48-9,0-18.24,3.84-19.8,13.68C319.6,57.51,351,50.43,347.92,68.67c-1.2,6.48-7.08,10-14,10s-12.7-2-17.16-6.36a31.49,31.49,0,0,1-2.83-3.17c-.78.79-1.33,1.28-2,1.87-4.79,3.9-11.32,7.3-18.91,7.3-10.44,0-16-7.32-13.68-23.51h7.56c23.88,0,29.88-5.65,31.44-14.88,1.8-10-5-17.4-17.88-17.4-15,0-27.24,9-30.72,28.79-3.72,22.32,6.12,31.08,21,31.08,11.14,0,17.81-5,22.59-9.53.41.51.83,1,1.29,1.49,4.95,5.17,11.16,8,19.56,8,12.48,0,19.92-6.48,21.6-15.6C359.67,43.36,328.6,49.47,331,34.6,331.84,29.68,336.16,26.2,343.12,26.2Zm-43.32-.6c8.52,0,11.16,6.72,10.08,13-1.44,8.28-5.88,13.19-22.68,13.19h-7.32C283,34.72,290.2,25.6,299.8,25.6Z"/><path class="cls-1" d="M231,35.92c3.48-7.68,10.56-13.44,20.16-13.44,11.16,0,17.88,6.84,15.36,20.88L260,81.15h-9.84l6.36-36.72C258.76,32,255.4,26.2,248.2,26.2c-7.56,0-16.2,6.24-19.32,21.83l-5.76,33.12h-9.84L223.36,23.8h9.84Z"/><path class="cls-1" d="M169.31,54.51c-2.52,16.8,3.24,24.6,14.16,24.6,7.08,0,13.92-3.48,18.12-7.08l1.56,1.56c-4.56,4-10.8,8.76-21,8.76-13.07,0-22.67-8-18.83-31C167,30.64,179,22.48,192.23,22.48c12.12,0,17.4,7.68,15.72,17.4-1.56,8.76-7.08,14.63-30,14.63Zm.48-2.76h8.4c19,0,23.16-4.8,24.6-13.07,1-5.52-1.2-13.32-11.16-13.32C180.71,25.36,172.79,35.2,169.79,51.75Z"/><path class="cls-1" d="M55.56,51.27C59.16,32,70,22.48,84.12,22.48c8.88,0,14.52,4,16,13.44l4.2-12.24h3.84L98,81.15h-4L94.2,69c-4.8,9.6-11.76,13.44-20.64,13.44C59.4,82.47,52,72.27,55.56,51.27Zm6.36,1.2c-3.24,18,1.56,26.88,13,26.88,11.16,0,18.6-8.52,22-25.56l.48-2.64c2.52-16.91-1.8-25.55-13-25.55C73,25.6,65,34.48,61.92,52.47Z"/><path class="cls-1" d="M34.08,22.48c-8.28,0-14.88,3.36-19.68,11.28L20.39,0h-6L0,81.63H4.56l3.36-10.2c2,7.8,7.92,11,16.68,11C38.28,82.47,48.48,73,52,53.67,55.68,32.68,48.36,22.48,34.08,22.48Zm11.64,30c-3.24,18-10.56,26.88-21.48,26.88-12.48,0-17-9-13.68-26.88C13.68,34.6,21.24,25.6,32.64,25.6S48.84,34.48,45.72,52.47Z"/><path class="cls-1" d="M141.83,22.48c-8.27,0-14.87,3.36-19.67,11.28l6-33.76h-6l-14.4,81.63h4.56l3.36-10.2c2,7.8,7.92,11,16.68,11,13.68,0,23.87-9.48,27.35-28.8C163.43,32.68,156.11,22.48,141.83,22.48Zm11.64,30c-3.24,18-10.55,26.88-21.47,26.88-12.48,0-17-9-13.68-26.88C121.44,34.6,129,25.6,140.4,25.6S156.59,34.48,153.47,52.47Z"/></g></g></svg>